<svg aria-hidden="true" style="position: absolute; width: 0; height: 0; overflow: hidden;" version="1.1" xmlns="http://www.w3.org/2000/svg" xmlns:xlink="http://www.w3.org/1999/xlink">
<defs>
<symbol id="icon-lesson" viewBox="0 0 32 32">
<path d="M21.262 26.538h-14.75c-1.737 0-3.163-1.413-3.163-3.163v-18.962c0.013-1.75 1.425-3.163 3.163-3.163h14.75c1.738 0 3.163 1.413 3.163 3.163v18.962c0 1.738-1.413 3.163-3.163 3.163zM6.513 3.362c-0.575 0-1.050 0.475-1.050 1.050v18.962c0 0.575 0.475 1.050 1.050 1.050h14.75c0.575 0 1.050-0.475 1.050-1.050v-18.962c0-0.575-0.475-1.050-1.050-1.050h-14.75z"></path>
<path d="M25.488 30.75h-15.813c-0.575 0-1.050-0.475-1.050-1.050 0-0.587 0.475-1.050 1.050-1.050h15.8c0.575 0 1.050-0.475 1.050-1.050v-20.025c0-0.575 0.475-1.050 1.050-1.050 0.587 0 1.050 0.475 1.050 1.050v20.012c0.012 1.75-1.4 3.163-3.137 3.163z"></path>
<path d="M17.050 9.675h-8.425c-0.575 0-1.050-0.475-1.050-1.050s0.475-1.050 1.050-1.050h8.425c0.587 0 1.050 0.475 1.050 1.050s-0.462 1.050-1.050 1.050z"></path>
<path d="M19.163 14.95h-10.537c-0.575 0-1.050-0.475-1.050-1.050s0.475-1.050 1.050-1.050h10.537c0.587 0 1.050 0.475 1.050 1.050s-0.462 1.050-1.050 1.050z"></path>
<path d="M19.163 20.212h-10.537c-0.575 0-1.050-0.475-1.050-1.050 0-0.587 0.475-1.050 1.050-1.050h10.537c0.587 0 1.050 0.475 1.050 1.050 0 0.587-0.462 1.050-1.050 1.050z"></path>
</symbol>
<symbol id="icon-vacation" viewBox="0 0 32 32">
<path d="M15.66 3.897c-0.203 0.095-0.365 0.128-0.64 0.128-0.283 0-0.39 0.045-0.565 0.237-0.16 0.175-0.21 0.287-0.315 0.705-0.047 0.19-0.1 0.385-0.115 0.433-0.012 0.048-0.033 0.223-0.040 0.388-0.018 0.367-0.045 0.525-0.127 0.702-0.053 0.117-0.063 0.165-0.053 0.33 0.012 0.253 0.090 0.42 0.305 0.655 0.283 0.308 0.352 0.468 0.453 1.048 0.068 0.38 0.082 0.86 0.035 1.058-0.033 0.125-0.23 0.295-0.485 0.42-0.4 0.193-1.315 0.453-1.762 0.5-0.557 0.057-0.715 0.14-1.203 0.625-0.305 0.3-0.375 0.385-0.412 0.488-0.023 0.068-0.105 0.26-0.18 0.425-0.072 0.165-0.162 0.385-0.197 0.488-0.092 0.283-0.21 0.485-0.447 0.775-0.117 0.145-0.255 0.325-0.307 0.4-0.082 0.12-0.59 1.145-0.678 1.37-0.018 0.043-0.070 0.115-0.117 0.155-0.107 0.095-0.26 0.102-0.385 0.018-0.047-0.033-0.287-0.168-0.535-0.305-0.692-0.38-1.067-0.607-1.8-1.095-0.975-0.65-1.17-0.803-1.575-1.23-0.215-0.227-0.485-0.48-0.7-0.652-0.428-0.34-0.725-0.635-0.873-0.86-0.063-0.092-0.13-0.175-0.152-0.185-0.065-0.025-0.335-0.018-0.388 0.010-0.047 0.025-0.1 0.21-0.1 0.348 0 0.037-0.067 0.205-0.15 0.37-0.18 0.36-0.238 0.563-0.218 0.76 0.012 0.102 0.005 0.152-0.022 0.193-0.048 0.070-0.068 0.068-0.228-0.008-0.198-0.090-0.363-0.262-0.615-0.637l-0.228-0.335-0.035 0.11c-0.045 0.148-0.025 0.363 0.045 0.502 0.032 0.060 0.125 0.21 0.205 0.33 0.083 0.123 0.165 0.265 0.182 0.32l0.038 0.1-0.14 0.063c-0.155 0.068-0.155 0.060 0 0.23 0.14 0.152 0.175 0.16 0.667 0.158l0.445-0.005 0.21 0.14 0.735 0.030c0.402 0.015 0.772 0.043 0.82 0.057 0.173 0.057 0.415 0.27 1.212 1.075 0.447 0.45 0.952 0.932 1.123 1.075s0.415 0.357 0.545 0.48c0.128 0.12 0.487 0.445 0.8 0.72 0.435 0.383 0.59 0.508 0.67 0.527 0.057 0.017 0.21 0.023 0.363 0.017 0.318-0.015 0.49-0.070 0.678-0.22 0.075-0.060 0.217-0.145 0.32-0.192 0.22-0.1 0.482-0.267 0.627-0.4 0.060-0.050 0.18-0.19 0.273-0.308 0.090-0.117 0.307-0.383 0.482-0.592 0.57-0.682 0.645-0.797 0.873-1.38 0.092-0.238 0.145-0.34 0.19-0.37 0.037-0.025 0.068-0.033 0.078-0.018s0.055 0.078 0.1 0.143c0.117 0.168 0.393 1.025 0.515 1.607 0.158 0.75 0.182 1.172 0.092 1.56-0.030 0.13-0.115 0.598-0.19 1.040-0.102 0.613-0.152 0.85-0.213 1.005-0.090 0.233-0.127 0.28-0.22 0.28-0.11 0-0.922-0.285-1.27-0.445-0.335-0.155-0.475-0.2-1.033-0.328-0.185-0.045-0.35-0.090-0.365-0.102s-0.19-0.070-0.387-0.128c-0.338-0.1-0.383-0.108-0.675-0.108-0.365-0.003-0.6 0.055-0.78 0.192-0.165 0.125-0.435 0.455-0.525 0.637-0.080 0.16-0.082 0.18-0.093 0.517-0.013 0.517 0.030 0.657 0.31 1.050 0.325 0.453 0.565 0.7 1.132 1.172 0.832 0.685 0.762 0.642 1.89 1.203 0.99 0.492 1.34 0.677 1.34 0.712 0 0.010-0.025 0.040-0.055 0.067-0.057 0.050-0.543 0.145-1.067 0.207-0.27 0.032-0.348 0.078-0.678 0.402-0.268 0.265-0.285 0.293-0.445 0.685-0.027 0.067-0.092 0.22-0.145 0.337-0.162 0.363-0.143 0.63 0.060 0.855 0.2 0.223 0.443 0.275 1.242 0.28 0.445 0 0.54-0.008 0.85-0.065 0.193-0.038 0.555-0.085 0.805-0.108 0.54-0.045 0.765-0.087 1.060-0.203 0.123-0.047 0.375-0.117 0.565-0.16s0.418-0.1 0.508-0.128c0.357-0.117 1.223-0.477 1.7-0.707 0.223-0.108 0.323-0.113 0.67-0.038 0.358 0.078 0.525 0.128 1.245 0.375 0.36 0.125 0.8 0.262 0.98 0.31 0.205 0.052 0.4 0.122 0.523 0.185 0.25 0.133 0.44 0.168 0.707 0.13 0.29-0.038 0.475-0.148 0.59-0.343 0.095-0.16 0.117-0.363 0.085-0.78l-0.025-0.36-0.087-0.080c-0.075-0.073-0.087-0.1-0.087-0.2 0-0.15-0.015-0.18-0.25-0.453-0.26-0.308-0.3-0.363-0.3-0.413 0-0.063 0.055-0.080 0.305-0.1 0.203-0.015 0.227-0.025 0.425-0.142 0.113-0.070 0.332-0.203 0.483-0.293 0.552-0.335 1.4-1.115 2-1.84 0.375-0.45 0.523-0.65 0.593-0.788 0.027-0.055 0.095-0.157 0.148-0.227 0.065-0.085 0.108-0.175 0.128-0.262 0.025-0.122 0.020-0.155-0.040-0.335-0.038-0.11-0.125-0.317-0.195-0.462-0.108-0.22-0.157-0.293-0.317-0.453-0.372-0.37-0.843-0.515-1.215-0.372-0.040 0.015-0.302 0.095-0.578 0.177-0.37 0.108-0.547 0.172-0.663 0.245-0.253 0.152-0.448 0.245-0.7 0.328-0.13 0.045-0.308 0.122-0.398 0.177-0.183 0.108-0.305 0.137-0.652 0.157-0.21 0.012-0.245 0.010-0.28-0.030-0.023-0.023-0.093-0.23-0.155-0.455-0.065-0.227-0.172-0.613-0.242-0.855-0.21-0.755-0.223-0.828-0.238-1.558-0.015-0.825 0.008-1.095 0.13-1.45 0.093-0.27 0.422-0.912 0.587-1.15 0.047-0.068 0.095-0.133 0.105-0.148s0.040-0.008 0.078 0.018c0.047 0.030 0.067 0.070 0.080 0.168 0.027 0.193 0.425 0.832 0.79 1.262 0.352 0.42 1.19 1.195 1.635 1.515 0.332 0.24 0.62 0.35 0.92 0.352 0.205 0.003 0.29-0.030 0.462-0.183 0.063-0.055 0.183-0.12 0.295-0.163 0.218-0.078 0.387-0.192 0.973-0.645 0.235-0.183 0.56-0.432 0.725-0.56 0.165-0.125 0.425-0.338 0.578-0.473 1.413-1.25 2.015-1.738 2.343-1.89 0.16-0.078 1.29-0.463 1.617-0.555 0.293-0.080 0.398-0.137 0.832-0.447 0.325-0.23 0.345-0.25 0.33-0.31-0.020-0.085-0.010-0.080-0.155-0.098-0.1-0.010-0.133-0.005-0.16 0.030-0.080 0.098-0.148 0.162-0.168 0.162-0.063 0-0.080-0.15-0.080-0.697 0-0.47-0.008-0.578-0.038-0.602-0.075-0.063-0.122-0.015-0.223 0.213-0.085 0.2-0.1 0.255-0.113 0.488-0.017 0.322-0.040 0.363-0.265 0.477l-0.165 0.085-0.058-0.065c-0.043-0.050-0.060-0.107-0.073-0.242-0.020-0.26-0.080-0.367-0.305-0.568-0.142-0.13-0.215-0.217-0.275-0.338-0.1-0.195-0.175-0.273-0.305-0.3-0.18-0.043-0.332 0.035-0.332 0.168 0 0.123-0.555 1.117-0.75 1.345-0.155 0.18-0.225 0.31-0.225 0.412 0 0.043-0.015 0.107-0.035 0.145-0.063 0.12-0.677 0.648-1.090 0.935-0.233 0.162-0.425 0.268-2.392 1.325-0.21 0.113-0.582 0.205-0.762 0.188-0.078-0.008-0.148-0.033-0.21-0.080-0.18-0.137-0.48-0.605-0.82-1.283-0.145-0.283-0.253-0.457-0.425-0.68-0.26-0.332-0.363-0.518-0.587-1.055-0.12-0.28-0.183-0.398-0.275-0.502-0.067-0.078-0.172-0.205-0.235-0.285s-0.188-0.217-0.277-0.303c-0.277-0.258-0.42-0.313-0.99-0.38-0.675-0.080-0.773-0.113-1.52-0.518-0.672-0.367-0.738-0.447-0.75-0.967-0.023-0.723 0.090-1.218 0.36-1.595 0.253-0.355 0.277-0.555 0.16-1.288-0.115-0.695-0.265-1.275-0.392-1.513-0.095-0.178-0.255-0.327-0.53-0.508-0.137-0.088-0.293-0.2-0.348-0.248-0.133-0.123-0.25-0.165-0.435-0.165-0.123 0-0.193 0.018-0.31 0.072zM28.942 11.735c0.128 0.273 0.148 0.438 0.075 0.582l-0.043 0.078-0.4-0.41 0.093-0.255c0.060-0.16 0.108-0.252 0.128-0.25 0.017 0.005 0.082 0.117 0.148 0.255zM2.915 11.813c0.070 0.040 0.123 0.098 0.158 0.17 0.060 0.125 0.065 0.197 0.022 0.443-0.027 0.158-0.035 0.175-0.090 0.175-0.18 0-0.305-0.175-0.305-0.432 0-0.15 0.060-0.418 0.092-0.418 0.007 0 0.063 0.027 0.123 0.063z"></path>
</symbol>
<symbol id="icon-about-us" viewBox="0 0 33 32">
<path d="M16.393 30.484c7.972 0 14.372-6.456 14.372-14.428s-6.4-14.372-14.372-14.372-14.428 6.4-14.428 14.372 6.456 14.428 14.428 14.428zM16.393 31.944c-8.758 0-15.832-7.13-15.832-15.888s7.074-15.832 15.832-15.832 15.832 7.074 15.832 15.832-7.074 15.888-15.832 15.888zM17.235 7.074c-0.505 0-0.898 0.168-1.291 0.505-0.337 0.337-0.561 0.786-0.561 1.291s0.168 0.898 0.561 1.291c0.337 0.337 0.786 0.505 1.291 0.505s0.898-0.168 1.291-0.505c0.337-0.337 0.505-0.786 0.505-1.291s-0.168-0.898-0.505-1.291c-0.393-0.337-0.786-0.505-1.291-0.505zM17.123 23.13c-0.168-0.168-0.225-0.505-0.225-0.954 0-0.168 0-0.449 0.056-0.786s0.112-0.674 0.168-0.954l0.674-3.481c0.056-0.337 0.112-0.674 0.112-1.067s0.056-0.674 0.056-0.786c0-0.73-0.168-1.347-0.561-1.797-0.337-0.449-0.842-0.674-1.516-0.674-0.337 0-0.73 0.112-1.179 0.281-0.393 0.168-0.842 0.393-1.291 0.674l-0.168 1.067c0.112-0.056 0.281-0.168 0.449-0.225s0.393-0.112 0.561-0.112c0.337 0 0.618 0.112 0.73 0.281s0.168 0.505 0.168 0.954c0 0.225 0 0.505-0.056 0.786s-0.112 0.618-0.168 0.954l-0.617 3.481c-0.056 0.393-0.112 0.674-0.112 0.954-0.056 0.281-0.056 0.561-0.056 0.842 0 0.73 0.168 1.291 0.561 1.797 0.393 0.449 0.898 0.674 1.572 0.674 0.449 0 0.786-0.056 1.123-0.225s0.786-0.393 1.291-0.73l0.168-1.067-0.449 0.225c-0.225 0.056-0.393 0.112-0.561 0.112-0.337 0.056-0.618-0.056-0.73-0.225z"></path>
</symbol>
<symbol id="icon-download" viewBox="0 0 32 32">
<path d="M24 20v4h-16v-4h-2.667v4c0 1.467 1.2 2.667 2.667 2.667h16c1.467 0 2.667-1.2 2.667-2.667v-4h-2.667zM22.667 14.667l-1.88-1.88-3.453 3.44v-10.893h-2.667v10.893l-3.453-3.44-1.88 1.88 6.667 6.667 6.667-6.667z"></path>
</symbol>
<symbol id="icon-location" viewBox="0 0 31 32">
<path d="M15.36 2.195c-6.352 0-11.52 5.026-11.52 11.204 0 7.119 4.75 11.414 7.9 14.257 1.002 0.947 2.317 1.42 3.628 1.42 1.309 0 2.615-0.471 3.602-1.41 3.15-2.842 7.91-7.14 7.91-14.266 0-6.178-5.168-11.204-11.52-11.204zM15.36 17.881c-2.541 0-4.608-2.011-4.608-4.482s2.067-4.482 4.608-4.482c2.541 0 4.608 2.011 4.608 4.482s-2.067 4.482-4.608 4.482z"></path>
</symbol>
<symbol id="icon-message" viewBox="0 0 31 32">
<path d="M21.682 4.755c1.716 0 3.368 0.678 4.582 1.896 1.216 1.215 1.896 2.853 1.896 4.568v10.112c0 3.571-2.906 6.464-6.478 6.464h-12.645c-3.572 0-6.477-2.893-6.477-6.464v-10.112c0-3.571 2.892-6.464 6.477-6.464h12.645zM23.13 11.411c-0.269-0.014-0.525 0.077-0.718 0.256l-5.772 4.608c-0.742 0.616-1.806 0.616-2.56 0l-5.76-4.608c-0.398-0.294-0.948-0.256-1.28 0.090-0.346 0.346-0.384 0.896-0.091 1.28l0.168 0.166 5.824 4.544c0.717 0.563 1.586 0.87 2.496 0.87 0.908 0 1.792-0.307 2.508-0.87l5.774-4.621 0.102-0.102c0.306-0.371 0.306-0.909-0.014-1.28-0.178-0.191-0.422-0.307-0.677-0.333z"></path>
</symbol>
<symbol id="icon-call" viewBox="0 0 31 32">
<path d="M14.761 16.88c5.106 5.104 6.264-0.801 9.515 2.448 3.134 3.133 4.936 3.761 0.965 7.731-0.497 0.4-3.658 5.209-14.764-5.894-11.108-11.105-6.301-14.268-5.902-14.766 3.981-3.981 4.598-2.169 7.732 0.964 3.251 3.25-2.652 4.412 2.454 9.517z"></path>
</symbol>
<symbol id="icon-quote-Icon" viewBox="0 0 31 32">
<path d="M6.465 22.547h3.879l2.586-5.172v-7.758h-7.758v7.758h3.879l-2.586 5.172zM19.394 22.547h3.879l2.586-5.172v-7.758h-7.758v7.758h3.879l-2.586 5.172z"></path>
</symbol>
<symbol id="icon-arrow-right" viewBox="0 0 32 32">
<path d="M5.333 15.634c0-0.506 0.376-0.925 0.864-0.991l0.136-0.009 17.579 0.001-6.351-6.325c-0.391-0.39-0.393-1.023-0.003-1.414 0.354-0.356 0.91-0.389 1.302-0.1l0.112 0.097 8.067 8.032c0.052 0.051 0.096 0.107 0.134 0.166 0.011 0.018 0.022 0.036 0.032 0.054 0.009 0.016 0.018 0.032 0.026 0.049 0.011 0.024 0.022 0.049 0.032 0.075 0.008 0.020 0.015 0.039 0.021 0.058 0.007 0.024 0.015 0.049 0.021 0.075 0.005 0.018 0.008 0.035 0.011 0.053 0.004 0.026 0.008 0.053 0.011 0.080 0.002 0.021 0.004 0.041 0.004 0.062 0 0.012 0 0.025 0 0.039l-0 0.039c-0.001 0.020-0.002 0.039-0.004 0.059l0.005-0.098c0 0.063-0.006 0.125-0.017 0.185-0.003 0.014-0.006 0.029-0.009 0.044-0.007 0.030-0.015 0.059-0.025 0.088-0.005 0.014-0.010 0.029-0.016 0.044-0.012 0.030-0.024 0.059-0.038 0.087-0.007 0.013-0.014 0.027-0.021 0.040-0.012 0.022-0.025 0.043-0.039 0.064-0.010 0.015-0.020 0.030-0.031 0.045l-0.009 0.012c-0.027 0.035-0.056 0.069-0.088 0.1l-0.001 0.001-8.067 8.033c-0.391 0.39-1.024 0.388-1.414-0.003-0.354-0.356-0.385-0.911-0.094-1.302l0.097-0.112 6.348-6.323-17.576-0.001c-0.552 0-1-0.448-1-1z"></path>
</symbol>
<symbol id="icon-arrow-left" viewBox="0 0 32 32">
<path d="M26.667 15.634c0-0.506-0.376-0.925-0.864-0.991l-0.136-0.009-17.579 0.001 6.351-6.325c0.391-0.39 0.393-1.023 0.003-1.414-0.354-0.356-0.91-0.389-1.302-0.1l-0.112 0.097-8.067 8.032c-0.052 0.051-0.096 0.107-0.134 0.166-0.011 0.018-0.022 0.036-0.032 0.054-0.010 0.016-0.018 0.032-0.026 0.049-0.011 0.024-0.022 0.049-0.032 0.075-0.008 0.020-0.015 0.039-0.021 0.058-0.007 0.024-0.014 0.049-0.021 0.075-0.005 0.018-0.008 0.035-0.011 0.053-0.004 0.026-0.008 0.053-0.011 0.080-0.002 0.021-0.004 0.041-0.005 0.062-0 0.012-0 0.025-0 0.039l0 0.039c0.001 0.020 0.002 0.039 0.004 0.059l-0.005-0.098c0 0.063 0.006 0.125 0.017 0.185 0.003 0.014 0.006 0.029 0.009 0.044 0.007 0.030 0.015 0.059 0.025 0.088 0.005 0.014 0.010 0.029 0.016 0.044 0.012 0.030 0.024 0.059 0.038 0.087 0.006 0.013 0.014 0.027 0.021 0.040 0.013 0.022 0.025 0.043 0.039 0.064 0.010 0.015 0.020 0.030 0.031 0.045l0.009 0.012c0.027 0.035 0.056 0.069 0.087 0.1l0.001 0.001 8.067 8.033c0.391 0.39 1.024 0.388 1.414-0.003 0.354-0.356 0.385-0.911 0.094-1.302l-0.097-0.112-6.348-6.323 17.576-0.001c0.552 0 1-0.448 1-1z"></path>
</symbol>
<symbol id="icon-activity" viewBox="0 0 31 32">
<path d="M19.261 3.739c0.535 0 0.97 0.435 0.97 0.97s-0.434 0.97-0.97 0.97h-9.397c-3.243 0-5.339 2.23-5.339 5.682v10.452c0 3.498 2.045 5.671 5.339 5.671h11.124c3.243 0 5.338-2.226 5.338-5.671v-9.103c0-0.535 0.434-0.97 0.97-0.97s0.97 0.435 0.97 0.97v9.103c0 4.552-2.925 7.611-7.278 7.611h-11.124c-4.353 0-7.278-3.058-7.278-7.611v-10.452c0-4.559 2.925-7.622 7.278-7.622h9.397zM21.996 12.572c0.424 0.328 0.502 0.938 0.173 1.361l-3.788 4.888c-0.158 0.204-0.39 0.338-0.646 0.369-0.259 0.035-0.515-0.040-0.719-0.199l-3.644-2.863-3.272 4.253c-0.191 0.248-0.478 0.379-0.769 0.379-0.207 0-0.415-0.066-0.591-0.2-0.424-0.327-0.504-0.936-0.177-1.36l3.87-5.031c0.158-0.206 0.392-0.339 0.648-0.371 0.261-0.034 0.517 0.039 0.72 0.201l3.646 2.864 3.19-4.116c0.328-0.425 0.936-0.504 1.36-0.173zM25.816 2.65c1.906 0 3.455 1.549 3.455 3.455s-1.549 3.457-3.455 3.457c-1.904 0-3.455-1.551-3.455-3.457s1.55-3.455 3.455-3.455zM25.816 4.59c-0.835 0-1.515 0.679-1.515 1.516 0 0.835 0.68 1.517 1.515 1.517s1.515-0.682 1.515-1.517c0-0.837-0.68-1.516-1.515-1.516z"></path>
</symbol>
<symbol id="icon-chart" viewBox="0 0 31 32">
<path d="M21.251 1.357c4.689 0 7.84 3.293 7.84 8.193v11.419c0 4.9-3.151 8.193-7.84 8.193h-12.117c-4.689 0-7.84-3.293-7.84-8.193v-11.419c0-4.9 3.151-8.193 7.84-8.193h12.117zM21.251 3.297h-12.117c-3.584 0-5.901 2.453-5.901 6.253v11.419c0 3.799 2.317 6.253 5.901 6.253h12.117c3.585 0 5.901-2.453 5.901-6.253v-11.419c0-3.8-2.316-6.253-5.901-6.253zM9.207 11.965c0.535 0 0.97 0.435 0.97 0.97v8.871c0 0.535-0.434 0.97-0.97 0.97s-0.97-0.435-0.97-0.97v-8.871c0-0.535 0.434-0.97 0.97-0.97zM15.241 7.718c0.535 0 0.97 0.435 0.97 0.97v13.117c0 0.535-0.434 0.97-0.97 0.97s-0.97-0.435-0.97-0.97v-13.117c0-0.535 0.434-0.97 0.97-0.97zM21.176 16.653c0.535 0 0.97 0.435 0.97 0.97v4.182c0 0.535-0.434 0.97-0.97 0.97s-0.97-0.435-0.97-0.97v-4.182c0-0.535 0.434-0.97 0.97-0.97z"></path>
</symbol>
<symbol id="icon-category" viewBox="0 0 31 32">
<path d="M8.081 16.876c5.261 0 5.495 1.785 5.495 5.496 0 1.86 0 3.183-0.781 4.151-0.899 1.116-2.534 1.345-4.714 1.345s-3.815-0.229-4.714-1.345c-0.781-0.969-0.781-2.29-0.781-4.119l0.97-0.032h-0.97c0-3.712 0.234-5.496 5.495-5.496zM22.303 16.876c5.261 0 5.495 1.785 5.495 5.496 0 1.86 0 3.183-0.781 4.151-0.899 1.116-2.534 1.345-4.714 1.345s-3.815-0.229-4.714-1.345c-0.781-0.969-0.781-2.29-0.781-4.119l0.97-0.032h-0.97c0-3.712 0.234-5.496 5.495-5.496zM8.347 18.816l-0.267-0.001c-3.373 0-3.546 0.242-3.555 3.074l0.001 1.103c0.006 1.126 0.049 1.94 0.349 2.315 0.343 0.424 1.36 0.621 3.205 0.621s2.863-0.198 3.205-0.622c0.35-0.436 0.35-1.47 0.35-2.903 0-3.233 0-3.572-3.289-3.587zM22.57 18.816l-0.266-0.001c-3.373 0-3.546 0.242-3.555 3.074l0 1.103c0.006 1.126 0.049 1.94 0.349 2.315 0.343 0.424 1.36 0.621 3.205 0.621s2.863-0.198 3.205-0.622c0.35-0.436 0.35-1.47 0.35-2.903 0-3.233 0-3.572-3.289-3.587zM8.081 2.65c5.261 0 5.495 1.785 5.495 5.496 0 1.86 0 3.183-0.781 4.151-0.899 1.116-2.534 1.345-4.714 1.345s-3.815-0.229-4.714-1.345c-0.781-0.969-0.781-2.29-0.781-4.119l0.97-0.032h-0.97c0-3.712 0.234-5.496 5.495-5.496zM22.303 2.65c5.261 0 5.495 1.785 5.495 5.496 0 1.86 0 3.183-0.781 4.151-0.899 1.116-2.534 1.345-4.714 1.345s-3.815-0.229-4.714-1.345c-0.781-0.969-0.781-2.29-0.781-4.119l0.97-0.032h-0.97c0-3.712 0.234-5.496 5.495-5.496zM8.347 4.591l-0.267-0.001c-3.373 0-3.546 0.242-3.555 3.074l0.001 1.103c0.006 1.126 0.049 1.94 0.349 2.315 0.343 0.424 1.36 0.621 3.205 0.621s2.863-0.198 3.205-0.622c0.35-0.436 0.35-1.47 0.35-2.903 0-3.233 0-3.572-3.289-3.587zM22.57 4.591l-0.266-0.001c-3.373 0-3.546 0.242-3.555 3.074l0 1.103c0.006 1.126 0.049 1.94 0.349 2.315 0.343 0.424 1.36 0.621 3.205 0.621s2.863-0.198 3.205-0.622c0.35-0.436 0.35-1.47 0.35-2.903 0-3.233 0-3.572-3.289-3.587z"></path>
</symbol>
<symbol id="icon-edit-Square" viewBox="0 0 31 32">
<path d="M14.858 2.698c0.535 0 0.97 0.435 0.97 0.97s-0.434 0.97-0.97 0.97h-4.834c-3.341 0-5.499 2.289-5.499 5.831v10.752c0 3.542 2.158 5.831 5.499 5.831h11.409c3.341 0 5.5-2.289 5.5-5.831v-5.209c0-0.535 0.434-0.97 0.97-0.97s0.97 0.435 0.97 0.97v5.209c0 4.648-2.991 7.771-7.439 7.771h-11.409c-4.449 0-7.438-3.123-7.438-7.771v-10.752c0-4.648 2.989-7.771 7.438-7.771h4.834zM26.119 3.834l1.574 1.574c0.767 0.766 1.188 1.783 1.187 2.867 0 1.084-0.422 2.1-1.187 2.864l-9.709 9.711c-0.712 0.713-1.661 1.106-2.67 1.106h-4.843c-0.261 0-0.512-0.106-0.694-0.294-0.182-0.186-0.282-0.438-0.275-0.701l0.122-4.887c0.025-0.972 0.416-1.887 1.104-2.576h0.001l9.662-9.664c1.58-1.578 4.149-1.578 5.729 0zM19.594 7.372l-7.496 7.498c-0.335 0.335-0.525 0.78-0.537 1.252l-0.097 3.894h3.849c0.491 0 0.952-0.19 1.299-0.538l7.541-7.545-4.56-4.561zM21.761 5.206l-0.796 0.794 4.56 4.562 0.797-0.795c0.398-0.398 0.618-0.929 0.618-1.492 0-0.565-0.22-1.097-0.618-1.495l-1.573-1.574c-0.824-0.821-2.163-0.821-2.988 0z"></path>
</symbol>
<symbol id="icon-github" viewBox="0 0 120 32">
<path d="M22.947 13.655h-10.012c-0.258 0-0.468 0.208-0.468 0.464v4.847c0 0.256 0.21 0.464 0.468 0.464h3.906v6.022c0 0-0.877 0.296-3.302 0.296-2.86 0-6.856-1.035-6.856-9.735 0-8.702 4.161-9.847 8.067-9.847 3.381 0 4.838 0.59 5.765 0.873 0.291 0.088 0.561-0.199 0.561-0.455l1.117-4.683c0-0.12-0.041-0.264-0.179-0.362-0.376-0.266-2.673-1.538-8.475-1.538-6.684 0-13.539 2.816-13.539 16.351s7.849 15.552 14.464 15.552c5.477 0 8.799-2.317 8.799-2.317 0.137-0.075 0.152-0.264 0.152-0.351v-15.116c0-0.256-0.209-0.464-0.468-0.464zM74.515 1.694c0-0.258-0.206-0.466-0.465-0.466h-5.637c-0.257 0-0.467 0.208-0.467 0.466 0 0.001 0.001 10.787 0.001 10.787h-8.787v-10.787c0-0.258-0.207-0.466-0.465-0.466h-5.637c-0.257 0-0.466 0.208-0.466 0.466v29.208c0 0.258 0.209 0.467 0.466 0.467h5.637c0.258 0 0.465-0.21 0.465-0.467v-12.493h8.787c0 0-0.015 12.492-0.015 12.493 0 0.258 0.209 0.467 0.467 0.467h5.651c0.258 0 0.465-0.21 0.465-0.467v-29.208zM33.566 5.599c0-2.010-1.627-3.634-3.635-3.634-2.006 0-3.634 1.624-3.634 3.634 0 2.008 1.629 3.636 3.634 3.636 2.008 0 3.635-1.629 3.635-3.636zM33.119 24.756v-13.482c0-0.256-0.209-0.465-0.466-0.465h-5.619c-0.258 0-0.488 0.263-0.488 0.519v19.316c0 0.568 0.357 0.736 0.82 0.736h5.063c0.555 0 0.692-0.27 0.692-0.746v-5.879zM96.060 10.808h-5.594c-0.257 0-0.465 0.209-0.465 0.467v14.322c0 0-1.421 1.029-3.438 1.029s-2.552-0.906-2.552-2.862v-12.489c0-0.258-0.208-0.467-0.465-0.467h-5.677c-0.256 0-0.466 0.209-0.466 0.467v13.435c0 5.809 3.269 7.23 7.767 7.23 3.69 0 6.665-2.018 6.665-2.018s0.142 1.064 0.206 1.19c0.064 0.126 0.231 0.253 0.412 0.253l3.612-0.016c0.256 0 0.466-0.21 0.466-0.466l-0.002-19.607c0-0.258-0.209-0.467-0.467-0.467zM108.949 26.637c-1.94-0.058-3.256-0.93-3.256-0.93v-9.25c0 0 1.298-0.788 2.891-0.929 2.014-0.179 3.955 0.424 3.955 5.182 0 5.018-0.876 6.008-3.59 5.927zM111.155 10.181c-3.177 0-5.338 1.404-5.338 1.404v-9.89c0-0.258-0.208-0.466-0.465-0.466h-5.653c-0.257 0-0.466 0.208-0.466 0.466v29.208c0 0.258 0.209 0.467 0.467 0.467h3.922c0.177 0 0.31-0.090 0.409-0.248 0.097-0.157 0.238-1.347 0.238-1.347s2.312 2.169 6.688 2.169c5.137 0 8.084-2.58 8.084-11.583s-4.705-10.18-7.885-10.18zM49.343 10.758h-4.229c0 0-0.007-5.53-0.007-5.531 0-0.209-0.109-0.314-0.353-0.314h-5.762c-0.224 0-0.344 0.098-0.344 0.311v5.716c0 0-2.888 0.69-3.083 0.746s-0.338 0.233-0.338 0.445v3.592c0 0.258 0.208 0.467 0.466 0.467h2.954v8.641c0 6.418 4.547 7.049 7.615 7.049 1.402 0 3.079-0.446 3.356-0.547 0.167-0.061 0.265-0.233 0.265-0.419l0.005-3.951c0-0.258-0.22-0.466-0.467-0.466-0.246 0-0.877 0.099-1.526 0.099-2.077 0-2.781-0.956-2.781-2.194 0-1.237-0-8.212-0-8.212h4.229c0.258 0 0.466-0.208 0.466-0.467v-4.499c0-0.258-0.209-0.466-0.466-0.466z"></path>
</symbol>
<symbol id="icon-twilio" viewBox="0 0 106 32">
<path d="M15.988 0c8.825 0 15.988 7.123 15.988 15.9s-7.162 15.9-15.988 15.9c-8.825 0-15.988-7.123-15.988-15.9s7.162-15.9 15.988-15.9zM15.988 4.198c-6.523 0-11.767 5.215-11.767 11.702s5.244 11.702 11.767 11.702c6.523 0 11.767-5.215 11.767-11.702s-5.244-11.702-11.767-11.702zM98.164 10.748c4.732 0 8.122 3.434 8.122 7.505v0.064c0 4.070-3.389 7.568-8.186 7.568-4.732 0-8.122-3.434-8.122-7.505v-0.064c0-4.070 3.389-7.568 8.186-7.568zM43.103 6.296c0.192-0.064 0.384 0.127 0.384 0.254v4.579h8.505c0.192 0 0.32 0.127 0.384 0.254l0.703 2.608 0.64 2.608 0.064 0.127 0.064-0.254 1.599-5.279c0.064-0.127 0.256-0.254 0.384-0.254h4.221c0.192 0 0.32 0.127 0.384 0.254l1.663 5.66 0.064-0.254 1.407-5.279c0.064-0.127 0.256-0.254 0.384-0.254h10.872c0.128 0 0.256 0.127 0.256 0.318v13.865c0 0.127-0.128 0.254-0.256 0.254h-5.436c-0.128 0-0.256-0.127-0.256-0.254v-13.356l-4.093 13.356c-0.064 0.127-0.256 0.254-0.384 0.254h-4.477c-0.192 0-0.32-0.127-0.384-0.254l-0.895-2.798-0.959-3.053-1.919 5.915c-0.064 0.127-0.256 0.254-0.384 0.254h-4.477c-0.192 0-0.32-0.127-0.384-0.254l-4.029-13.292v3.434c0 0.127-0.128 0.254-0.256 0.254h-3.070v3.625c0 1.081 0.512 1.463 1.471 1.463 0.512 0 0.959-0.064 1.535-0.318 0.128 0 0.32 0.064 0.32 0.254v4.198c-0.959 0.509-2.366 0.827-3.837 0.827-3.517 0-5.436-1.654-5.436-5.152v-4.961h-1.407c-0.128 0-0.256-0.127-0.256-0.254v-4.070c0-0.127 0.128-0.254 0.256-0.254h1.407v-2.862c0-0.127 0.064-0.191 0.256-0.254l5.372-1.654zM81.985 6.233c0.128 0 0.256 0.127 0.256 0.254v18.762c0 0.127-0.128 0.254-0.256 0.254h-5.436c-0.128 0-0.256-0.127-0.256-0.254v-18.762c0-0.127 0.128-0.254 0.256-0.254h5.436zM89.147 11.066c0.128 0 0.256 0.127 0.256 0.318v13.865c0 0.127-0.128 0.254-0.256 0.254h-5.436c-0.128 0-0.256-0.127-0.256-0.254v-13.928c0-0.127 0.128-0.254 0.256-0.254h5.436zM19.953 16.536c1.837 0 3.325 1.481 3.325 3.307s-1.489 3.307-3.325 3.307c-1.837 0-3.325-1.481-3.325-3.307s1.489-3.307 3.325-3.307zM12.023 16.536c1.837 0 3.325 1.481 3.325 3.307s-1.489 3.307-3.325 3.307c-1.837 0-3.325-1.481-3.325-3.307s1.489-3.307 3.325-3.307zM98.1 15.709c-1.343 0-2.302 1.081-2.302 2.48v0.064c0 1.399 1.023 2.544 2.366 2.544s2.302-1.081 2.302-2.48c0-1.463-1.023-2.608-2.366-2.608zM19.953 8.65c1.837 0 3.325 1.481 3.325 3.307s-1.489 3.307-3.325 3.307c-1.837 0-3.325-1.481-3.325-3.307s1.489-3.307 3.325-3.307zM12.023 8.65c1.837 0 3.325 1.481 3.325 3.307s-1.489 3.307-3.325 3.307c-1.837 0-3.325-1.481-3.325-3.307s1.489-3.307 3.325-3.307zM74.886 6.233c0.192 0 0.32 0.127 0.256 0.254v3.244c0 0.127-0.128 0.254-0.256 0.254h-5.628c-0.128 0-0.256-0.127-0.256-0.254v-3.244c0-0.127 0.128-0.254 0.256-0.254h5.628zM89.211 6.233c0.192 0 0.32 0.127 0.256 0.254v3.244c0 0.127-0.128 0.254-0.256 0.254h-5.628c-0.128 0-0.256-0.127-0.256-0.254v-3.244c0-0.127 0.128-0.254 0.256-0.254h5.628z"></path>
</symbol>
<symbol id="icon-dribbble" viewBox="0 0 135 32">
<path d="M40.886 12.78c1.532 0 2.773-1.207 2.773-2.695s-1.242-2.695-2.773-2.695c-1.532 0-2.773 1.207-2.773 2.695s1.242 2.695 2.773 2.695zM132.406 21.989c-0.423-0.288-0.749-0.336-1.018 0.224-4.657 9.802-12.506 4.911-11.727 5.341 1.742-0.774 6.32-4.342 5.629-9.269-0.421-3.011-3.080-4.347-5.904-3.868-4.927 0.835-6.74 5.999-5.817 10.572 0.162 0.785 0.45 1.433 0.738 2.067-5.568 4.4-7.78-3.939-8.031-4.936-0.010-0.053 4.3-3.544 5.498-11.862 1.256-8.717-1.606-10.305-4.532-10.255-5.415 0.092-6.879 11.086-4.913 20.249-0.164 0.042-0.931 0.454-2.162 0.5-0.886-2.709-4.672-5.084-5.663-4.169-2.48 2.289 0.601 6.764 2.769 7.115-1.302 7.794-9.447 5.864-7.931-3.901 2.652-4.786 4.669-11.902 4.309-16.198-0.127-1.521-1.285-3.559-3.902-3.458-5.034 0.194-5.581 11.191-4.991 18.997-0.029-0.192-0.309 0.948-2.372 1.516-0.488-2.632-4.849-5.274-5.876-4.004-1.922 2.377 1.409 6.616 2.986 6.911-1.302 7.794-9.447 5.864-7.931-3.901 2.652-4.786 4.669-11.902 4.309-16.198-0.127-1.521-1.285-3.559-3.902-3.458-5.034 0.194-5.581 11.191-4.991 18.997-0.030-0.195-0.316 0.983-2.463 1.541-0.072-3.415-4.449-4.98-5.5-3.891-1.874 1.942 0.429 5.927 2.56 6.911-1.302 7.794-9.447 5.864-7.931-3.901 2.652-4.786 4.669-11.902 4.309-16.198-0.127-1.521-1.285-3.559-3.902-3.458-5.034 0.194-5.439 11.744-4.849 19.55-1.658 6.903-7.219 15.524-6.496-1.745 0.071-1.211 0.149-1.672-0.472-2.125-0.466-0.353-1.525-0.183-2.104-0.169-0.704 0.027-0.88 0.428-1.036 1.032-0.362 1.561-0.427 3.075-0.479 5.14-0.034 0.966-0.114 1.417-0.496 2.734s-2.564 3.724-3.759 3.322c-1.657-0.554-1.114-5.099-0.803-8.222 0.259-2.468-0.57-3.576-2.693-3.98-1.243-0.252-1.998-0.213-3.292-0.609-1.224-0.375-1.501-2.625-4.111-1.875-1.428 0.41-0.51 3.35-0.853 5.529-1.687 10.718-5.198 11.012-6.826 5.805 7.335-17.455 2.122-24.337-0.929-24.337-3.178 0-6.811 2.127-5.273 15.738-0.748-0.212-0.978-0.326-1.797-0.326-4.631 0-7.787 3.638-7.787 8.125s3.155 8.126 7.787 8.126c2.734 0 4.653-1.208 6.107-3.077 0.948 1.32 2.103 3.098 4.215 3.017 6.295-0.238 8.127-12.787 8.342-13.486 0.673 0.101 1.31 0.292 1.931 0.392 1.036 0.151 1.111 0.549 1.087 1.562-0.274 8.534 1.346 11.522 5.022 11.522 2.048 0 3.874-1.955 5.132-3.354 0.939 1.884 2.436 3.296 4.444 3.354 4.866 0.117 6.729-7.418 6.559-6.427-0.133 0.778 1.579 6.384 6.588 6.405 6.205 0.025 7.358-6.605 7.496-7.716 0.017-0.221 0.025-0.198 0 0-0.002 0.021-0.003 0.043-0.005 0.067 1.97-0.356 2.987-1.382 2.987-1.382s1.582 9.134 7.441 9.031c6.084-0.107 7.232-6.101 7.383-7.27 0.020-0.277 0.032-0.245 0 0-0.001 0.012-0.002 0.022-0.002 0.034 2.34-0.827 2.955-1.658 2.955-1.658s1.257 8.952 7.441 9.031c5.511 0.070 7.553-5.413 7.565-7.708 0.93 0.010 2.649-0.536 2.608-0.567 0 0 2.019 7.827 7.655 8.229 2.647 0.189 4.632-1.447 5.764-2.193 2.659 2.093 11.517 4.766 17.107-4.447 0.79-1.322-0.907-2.884-1.205-3.088zM7.563 28.678c-2.702 0-4.435-2.428-4.435-5.045s1.59-5.045 4.292-5.045c1.216 0 1.892 0.13 2.839 0.93 0.172 0.657 0.658 2.174 0.895 2.863 0.317 0.921 0.694 1.706 1.075 2.56-0.544 2.19-2.326 3.737-4.667 3.737zM14.147 19.595c-0.112-0.174-0.089-0.067-0.215-0.231-0.495-1.309-1.45-4.231-1.56-7.551-0.125-3.754 0.519-8.155 2.418-8.155 1.286 0 2.654 8.919-0.643 15.938zM52.192 15.683c-0.305-2.228-0.321-12.161 2.133-11.887 1.355 0.533-0.859 9.906-2.133 11.887zM70.111 15.683c-0.305-2.228-0.321-12.161 2.133-11.887 1.355 0.533-0.859 9.906-2.133 11.887zM87.887 15.821c-0.305-2.228-0.321-12.161 2.133-11.887 1.355 0.533-0.859 9.906-2.133 11.887zM107.512 3.214c2.244-0.226 2.151 9.294-2.352 15.305-0.581-2.172-1.471-14.559 2.352-15.305zM116.943 23.7c-0.721-3.537 1.141-5.86 3.061-6.115 0.671-0.104 1.643 0.318 1.837 1.108 0.319 1.488-0.046 3.695-4.342 6.496 0.006 0.024-0.395-0.701-0.555-1.489z"></path>
</symbol>
<symbol id="icon-slack" viewBox="0 0 130 32">
<path d="M41.343 25.079l1.614-3.652c1.744 1.268 4.061 1.927 6.352 1.927 1.692 0 2.76-0.634 2.76-1.598-0.026-2.688-10.127-0.583-10.206-7.328-0.026-3.423 3.098-6.061 7.524-6.061 2.63 0 5.259 0.634 7.133 2.079l-1.51 3.728c-1.718-1.065-3.853-1.826-5.884-1.826-1.38 0-2.291 0.634-2.291 1.445 0.026 2.637 10.206 1.192 10.31 7.633 0 3.499-3.046 5.959-7.42 5.959-3.202 0-6.144-0.735-8.383-2.308zM103.279 20.109l4.452 2.409c-1.666 2.916-4.842 4.869-8.513 4.869-5.389 0-9.763-4.26-9.763-9.509s4.374-9.509 9.763-9.509c3.645 0 6.847 1.978 8.513 4.869l-4.452 2.409c-0.807-1.369-2.317-2.308-4.061-2.308-2.578 0-4.66 2.029-4.66 4.539s2.083 4.539 4.66 4.539c1.744 0 3.254-0.938 4.061-2.308zM59.385 0.482h5.571v26.55h-5.571v-26.55zM109.918 0.482h5.572v15.595l6.301-7.329h6.821l-7.784 8.825 8.409 9.459h-7.134l-6.613-7.962v7.962h-5.572v-26.55zM81.514 20.16v-4.488c-0.807-1.319-2.473-2.333-4.348-2.333-2.577 0-4.66 2.029-4.66 4.539s2.083 4.539 4.66 4.539c1.874 0 3.541-0.964 4.348-2.257zM81.514 8.749h5.571v18.258h-5.571v-2.156c-0.911 1.496-3.176 2.536-5.545 2.536-4.894 0-8.748-4.26-8.748-9.535s3.853-9.484 8.748-9.484c2.369 0 4.634 1.040 5.545 2.536v-2.155z"></path>
<path d="M6.899 20.134c0 1.851-1.536 3.347-3.437 3.347s-3.437-1.496-3.437-3.347c0-1.851 1.536-3.347 3.437-3.347h3.437v3.347zM8.617 20.134c0-1.851 1.536-3.347 3.437-3.347s3.437 1.496 3.437 3.347v8.368c0 1.851-1.536 3.347-3.437 3.347s-3.437-1.496-3.437-3.347v-8.368z"></path>
<path d="M12.054 6.695c-1.901 0-3.437-1.496-3.437-3.347s1.536-3.347 3.437-3.347c1.901 0 3.437 1.496 3.437 3.347v3.347h-3.437zM12.054 8.394c1.901 0 3.437 1.496 3.437 3.347s-1.536 3.347-3.437 3.347h-8.617c-1.901 0-3.437-1.496-3.437-3.347s1.536-3.347 3.437-3.347h8.617z"></path>
<path d="M25.826 11.741c0-1.851 1.536-3.347 3.437-3.347s3.437 1.496 3.437 3.347c0 1.851-1.536 3.347-3.437 3.347h-3.437v-3.347zM24.108 11.741c0 1.851-1.536 3.347-3.437 3.347s-3.436-1.496-3.436-3.347v-8.394c0-1.851 1.536-3.347 3.436-3.347s3.437 1.496 3.437 3.347v8.394z"></path>
<path d="M20.671 25.155c1.901 0 3.437 1.496 3.437 3.347s-1.536 3.347-3.437 3.347c-1.9 0-3.436-1.496-3.436-3.347v-3.347h3.436zM20.671 23.482c-1.9 0-3.436-1.496-3.436-3.347s1.536-3.347 3.436-3.347h8.617c1.9 0 3.437 1.496 3.437 3.347s-1.536 3.347-3.437 3.347h-8.617z"></path>
</symbol>
<symbol id="icon-behance" viewBox="0 0 166 32">
<path d="M13.686 25.991c0.652 0 1.271-0.061 1.854-0.196 0.591-0.136 1.115-0.348 1.557-0.665 0.442-0.303 0.808-0.72 1.075-1.25 0.267-0.525 0.395-1.206 0.395-2.030 0-1.614-0.436-2.761-1.301-3.456-0.868-0.686-2.025-1.028-3.448-1.028h-7.188v8.625h7.056zM13.321 12.658c1.171 0 2.14-0.29 2.909-0.879 0.761-0.578 1.13-1.536 1.13-2.849 0-0.728-0.123-1.331-0.369-1.798-0.254-0.467-0.592-0.834-1.018-1.090-0.423-0.266-0.901-0.451-1.456-0.55-0.544-0.112-1.115-0.155-1.7-0.155h-6.186v7.32h6.691zM14.176 0.003c1.436 0 2.732 0.13 3.917 0.397 1.178 0.26 2.184 0.696 3.033 1.293 0.837 0.596 1.491 1.389 1.96 2.388 0.457 0.985 0.688 2.217 0.688 3.675 0 1.577-0.343 2.894-1.030 3.946-0.691 1.051-1.707 1.914-3.064 2.583 1.848 0.554 3.217 1.531 4.124 2.918 0.912 1.396 1.358 3.069 1.358 5.028 0 1.589-0.292 2.956-0.873 4.106-0.588 1.164-1.389 2.109-2.375 2.837-0.994 0.735-2.137 1.274-3.416 1.625-1.266 0.351-2.579 0.527-3.925 0.527h-14.554v-31.323h14.157z"></path>
<path d="M41.45 13.971c-0.71-0.82-1.912-1.263-3.379-1.263-0.954 0-1.745 0.168-2.376 0.509-0.618 0.337-1.126 0.756-1.512 1.25-0.385 0.502-0.649 1.031-0.802 1.597-0.153 0.552-0.244 1.053-0.272 1.495h9.717c-0.142-1.589-0.664-2.763-1.376-3.588zM34.588 25.887c0.894 0.911 2.187 1.37 3.862 1.37 1.204 0 2.245-0.318 3.118-0.952 0.865-0.632 1.392-1.308 1.596-2.010h5.259c-0.845 2.73-2.128 4.679-3.878 5.852-1.729 1.179-3.838 1.766-6.295 1.766-1.713 0-3.254-0.29-4.637-0.859-1.383-0.577-2.539-1.386-3.512-2.439-0.948-1.058-1.683-2.31-2.207-3.779-0.519-1.462-0.781-3.081-0.781-4.835 0-1.696 0.272-3.28 0.803-4.745 0.543-1.469 1.292-2.737 2.277-3.8 0.989-1.069 2.16-1.913 3.523-2.529 1.365-0.615 2.869-0.923 4.535-0.923 1.839 0 3.45 0.369 4.831 1.122 1.376 0.741 2.504 1.746 3.391 3.004 0.886 1.257 1.517 2.694 1.911 4.304 0.39 1.609 0.528 3.29 0.415 5.050h-15.69c0 1.792 0.581 3.49 1.479 4.401z"></path>
<path d="M57.281 0.003v11.811h0.137c0.758-1.314 1.717-2.269 2.896-2.862 1.177-0.597 2.325-0.892 3.444-0.892 1.595 0 2.902 0.219 3.922 0.67 1.022 0.459 1.83 1.080 2.422 1.888 0.58 0.804 0.991 1.785 1.231 2.941 0.236 1.154 0.358 2.426 0.358 3.83v13.937h-6.001v-12.806c0-1.867-0.279-3.271-0.836-4.189-0.558-0.919-1.547-1.381-2.975-1.381-1.614 0-2.782 0.51-3.505 1.518-0.737 1.007-1.093 2.665-1.093 4.973v11.886h-5.999v-31.323h5.999z"></path>
<path d="M87.709 20.79c-0.372 0.128-0.783 0.237-1.208 0.331-0.438 0.087-0.895 0.157-1.369 0.219-0.47 0.059-0.953 0.127-1.422 0.215-0.447 0.092-0.894 0.206-1.319 0.354-0.433 0.147-0.813 0.344-1.125 0.591-0.324 0.251-0.582 0.565-0.779 0.942-0.192 0.378-0.294 0.869-0.294 1.45 0 0.554 0.103 1.022 0.294 1.406 0.197 0.381 0.455 0.678 0.794 0.898 0.338 0.22 0.733 0.375 1.173 0.46 0.447 0.093 0.909 0.127 1.382 0.127 1.174 0 2.080-0.203 2.725-0.611 0.642-0.41 1.125-0.9 1.428-1.471 0.308-0.571 0.494-1.146 0.554-1.727 0.079-0.584 0.114-1.055 0.114-1.408v-2.33c-0.259 0.239-0.563 0.423-0.948 0.554zM75.954 11.965c0.608-0.965 1.391-1.746 2.344-2.33 0.953-0.59 2.018-1.005 3.216-1.254 1.193-0.256 2.385-0.376 3.596-0.376 1.089 0 2.19 0.079 3.325 0.24 1.116 0.161 2.137 0.476 3.063 0.946 0.925 0.472 1.678 1.118 2.262 1.961 0.592 0.822 0.892 1.935 0.892 3.315v11.82c0 1.028 0.059 2.004 0.164 2.939 0.119 0.943 0.425 1.651 0.715 2.115l-6.1-0.015c-0.179-0.271-0.327-0.696-0.397-1.066-0.071-0.362-0.12-0.734-0.147-1.116-0.95 1.025-2.064 1.746-3.361 2.158-1.287 0.406-2.6 0.611-3.948 0.611-1.033 0-1.995-0.137-2.896-0.401-0.887-0.264-1.675-0.673-2.347-1.226-0.675-0.564-1.194-1.263-1.572-2.11-0.376-0.852-0.57-1.865-0.57-3.035 0-1.292 0.222-2.355 0.661-3.188 0.428-0.833 0.983-1.502 1.677-1.998 0.683-0.5 1.468-0.875 2.356-1.12 0.88-0.247 1.774-0.452 2.66-0.596 0.9-0.144 1.775-0.26 2.65-0.351 0.877-0.089 1.636-0.216 2.315-0.395 0.669-0.174 1.205-0.438 1.599-0.772 0.386-0.335 0.572-0.823 0.546-1.472 0-0.671-0.114-1.206-0.32-1.606-0.208-0.394-0.488-0.697-0.831-0.918-0.352-0.221-0.749-0.366-1.206-0.444-0.465-0.070-0.958-0.109-1.483-0.109-1.169 0-2.094 0.271-2.749 0.792-0.674 0.536-1.062 1.419-1.181 2.651h-5.991c0.087-1.471 0.433-2.686 1.060-3.65z"></path>
<path d="M103.608 8.652v3.161h0.133c0.756-1.314 1.731-2.269 2.942-2.862 1.201-0.597 2.445-0.892 3.706-0.892 1.602 0 2.917 0.219 3.933 0.67 1.033 0.459 1.838 1.080 2.421 1.888 0.597 0.804 1.008 1.785 1.247 2.941 0.242 1.154 0.361 2.426 0.361 3.83v13.937h-6.003v-12.806c0-1.867-0.282-3.271-0.841-4.189-0.568-0.919-1.547-1.509-2.985-1.509-1.625 0-2.808 0.639-3.536 1.646-0.732 1.007-1.094 2.665-1.094 4.973v11.886h-5.938v-22.674h5.656z"></path>
<path d="M131.64 12.708c-0.96 0-1.753 0.221-2.391 0.68-0.65 0.458-1.182 1.038-1.587 1.758-0.408 0.715-0.689 1.506-0.864 2.372-0.162 0.865-0.254 1.721-0.254 2.573 0 0.823 0.091 1.657 0.254 2.508 0.175 0.847 0.442 1.612 0.822 2.309 0.384 0.683 0.895 1.244 1.541 1.688 0.641 0.441 1.423 0.661 2.35 0.661 1.438 0 2.539-0.419 3.311-1.248 0.769-0.834 1.245-1.954 1.445-3.358h5.768c-0.397 3.008-1.518 5.306-3.365 6.89-1.853 1.574-4.225 2.372-7.114 2.372-1.633 0-3.117-0.29-4.485-0.859-1.366-0.577-2.526-1.371-3.481-2.397-0.955-1.028-1.697-2.249-2.24-3.669-0.53-1.422-0.797-2.984-0.797-4.679 0-1.756 0.247-3.391 0.738-4.903 0.489-1.506 1.213-2.811 2.176-3.905 0.954-1.101 2.122-1.958 3.503-2.574 1.375-0.615 2.946-0.923 4.711-0.923 1.29 0 2.529 0.182 3.727 0.522 1.189 0.347 2.256 0.884 3.194 1.603 0.939 0.715 1.709 1.606 2.298 2.668 0.583 1.062 0.915 2.335 1.008 3.79h-5.856c-0.387-2.588-1.859-3.88-4.411-3.88z"></path>
<path d="M31.888 2.105h12.172v3.091h-12.172v-3.091z"></path>
<path d="M157.949 13.971c-0.72-0.82-1.931-1.263-3.379-1.263-0.953 0-1.745 0.168-2.389 0.509-0.619 0.337-1.184 0.756-1.565 1.25-0.379 0.502-0.651 1.031-0.81 1.597-0.142 0.552-0.241 1.053-0.267 1.495h9.791c-0.16-1.589-0.669-2.763-1.381-3.588zM151.013 25.887c0.897 0.911 2.251 1.37 3.939 1.37 1.201 0 2.24-0.318 3.107-0.952 0.869-0.632 1.406-1.308 1.598-2.010h5.258c-0.84 2.73-2.13 4.679-3.87 5.852-1.735 1.179-3.835 1.766-6.302 1.766-1.718 0-3.264-0.29-4.638-0.859-1.381-0.577-2.538-1.386-3.506-2.439-0.958-1.058-1.691-2.31-2.214-3.779-0.519-1.462-0.777-3.081-0.777-4.835 0-1.696 0.267-3.28 0.799-4.745 0.538-1.469 1.303-2.737 2.282-3.8 0.993-1.069 2.154-1.913 3.514-2.529 1.366-0.615 2.882-0.923 4.539-0.923 1.837 0 3.455 0.369 4.822 1.122 1.379 0.741 2.513 1.746 3.393 3.004 0.887 1.257 1.523 2.694 1.915 4.304 0.385 1.609 0.533 3.29 0.423 5.050h-15.759c0 1.792 0.574 3.49 1.474 4.401z"></path>
</symbol>
<symbol id="icon-basketball" viewBox="0 0 32 32">
<path d="M26.828 9.064c-1.133-1.964-2.764-3.594-4.728-4.727-1.991-1.16-4.163-1.74-6.517-1.74s-4.527 0.58-6.519 1.74c-1.991 1.16-3.567 2.736-4.727 4.727s-1.74 4.164-1.74 6.519c0 2.354 0.579 4.528 1.74 6.519 1.133 1.964 2.764 3.594 4.728 4.727 1.991 1.16 4.163 1.74 6.517 1.74s4.527-0.58 6.519-1.74c1.964-1.133 3.595-2.763 4.728-4.727 1.16-1.991 1.739-4.164 1.739-6.519s-0.579-4.528-1.74-6.519zM15.583 4.753c2.597 0 4.898 0.831 6.908 2.492-1.195 1.524-2.968 2.779-5.324 3.766-1.301-2.354-2.711-4.32-4.235-5.895 0.863-0.239 1.755-0.361 2.65-0.362zM7.155 8.83c0.95-1.206 2.151-2.19 3.52-2.883 1.574 1.56 3.019 3.506 4.337 5.843-2.597 0.779-5.342 1.169-8.234 1.169-0.744 0-1.306-0.017-1.688-0.052 0.398-1.488 1.101-2.876 2.065-4.077zM4.753 15.583c0-0.070 0.004-0.156 0.013-0.26s0.013-0.19 0.013-0.26c0.33 0.018 0.832 0.026 1.508 0.026 3.462 0 6.682-0.477 9.66-1.428 0.243 0.484 0.495 1.030 0.753 1.636-1.714 0.381-3.472 1.306-5.273 2.779s-3.115 3.022-3.946 4.649c-1.818-2.061-2.727-4.441-2.727-7.142zM15.583 26.413c-2.459 0-4.667-0.762-6.624-2.284 0.78-1.541 1.979-3.015 3.598-4.416 1.618-1.402 3.224-2.276 4.818-2.623 1.005 2.778 1.685 5.662 2.026 8.596-1.217 0.476-2.511 0.722-3.818 0.727zM24.776 21.271c-0.85 1.369-1.994 2.532-3.35 3.403-0.312-2.701-0.909-5.333-1.791-7.896 1.21-0.086 2.292-0.13 3.246-0.13 1.038 0 2.189 0.044 3.453 0.13-0.169 1.597-0.702 3.134-1.558 4.493zM23.166 14.778c-1.506 0-2.9 0.061-4.181 0.182-0.272-0.711-0.566-1.412-0.883-2.104 2.683-1.177 4.586-2.605 5.712-4.285 1.558 1.836 2.407 3.931 2.545 6.285-1.054-0.052-2.119-0.078-3.193-0.078z"></path>
</symbol>
<symbol id="icon-linkedin" viewBox="0 0 32 32">
<path d="M6.471 9.346c1.569 0 2.841-1.272 2.841-2.841s-1.272-2.841-2.841-2.841c-1.569 0-2.841 1.272-2.841 2.841s1.272 2.841 2.841 2.841z"></path>
<path d="M11.995 11.499v15.763h4.894v-7.795c0-2.057 0.387-4.049 2.937-4.049 2.515 0 2.547 2.352 2.547 4.179v7.667h4.897v-8.644c0-4.246-0.914-7.509-5.877-7.509-2.383 0-3.98 1.308-4.633 2.545h-0.066v-2.156h-4.698zM4.019 11.499h4.902v15.763h-4.902v-15.763z"></path>
</symbol>
<symbol id="icon-facebook" viewBox="0 0 32 32">
<path d="M17.397 27.266v-10.643h3.59l0.534-4.167h-4.124v-2.654c0-1.202 0.335-2.026 2.061-2.026h2.187v-3.715c-1.064-0.114-2.133-0.169-3.203-0.165-3.174 0-5.353 1.937-5.353 5.494v3.058h-3.567v4.167h3.575v10.651h4.301z"></path>
</symbol>
<symbol id="icon-instagram" viewBox="0 0 32 32">
<path d="M15.581 9.58c-1.592 0-3.12 0.633-4.246 1.759s-1.759 2.653-1.759 4.246c0 1.593 0.633 3.12 1.759 4.246s2.653 1.759 4.246 1.759c1.592 0 3.12-0.633 4.246-1.759s1.759-2.653 1.759-4.246-0.633-3.12-1.759-4.246c-1.126-1.126-2.653-1.759-4.246-1.759zM15.581 19.484c-1.035 0-2.027-0.411-2.758-1.143s-1.143-1.724-1.143-2.758c0-1.035 0.411-2.027 1.143-2.758s1.724-1.143 2.758-1.143c1.035 0 2.027 0.411 2.758 1.143s1.143 1.724 1.143 2.758c0 1.035-0.411 2.027-1.143 2.758s-1.724 1.143-2.758 1.143z"></path>
<path d="M21.823 10.759c0.773 0 1.4-0.627 1.4-1.4s-0.627-1.4-1.4-1.4c-0.773 0-1.4 0.627-1.4 1.4s0.627 1.4 1.4 1.4z"></path>
<path d="M26.663 7.936c-0.301-0.776-0.76-1.481-1.349-2.070s-1.294-1.048-2.070-1.348c-0.909-0.341-1.868-0.525-2.839-0.545-1.25-0.055-1.647-0.070-4.818-0.070s-3.578 0-4.818 0.070c-0.97 0.019-1.929 0.203-2.836 0.545-0.777 0.3-1.482 0.759-2.071 1.348s-1.048 1.294-1.348 2.070c-0.341 0.908-0.525 1.868-0.544 2.839-0.056 1.249-0.073 1.645-0.073 4.818 0 3.171 0 3.575 0.073 4.818 0.019 0.971 0.203 1.93 0.544 2.84 0.301 0.776 0.761 1.481 1.35 2.070s1.294 1.048 2.071 1.348c0.906 0.355 1.865 0.552 2.837 0.584 1.251 0.055 1.647 0.071 4.818 0.071s3.577 0 4.818-0.071c0.97-0.020 1.93-0.204 2.839-0.544 0.776-0.301 1.481-0.761 2.070-1.349s1.048-1.294 1.349-2.070c0.341-0.909 0.525-1.867 0.544-2.839 0.056-1.249 0.073-1.645 0.073-4.818s0-3.575-0.073-4.818c-0.015-0.984-0.2-1.958-0.547-2.879zM25.081 20.313c-0.008 0.748-0.145 1.49-0.404 2.192-0.195 0.505-0.494 0.964-0.876 1.346s-0.842 0.681-1.347 0.876c-0.695 0.258-1.428 0.394-2.169 0.404-1.234 0.057-1.582 0.072-4.745 0.072-3.166 0-3.489 0-4.746-0.072-0.74-0.009-1.473-0.146-2.167-0.404-0.507-0.194-0.967-0.491-1.352-0.874s-0.684-0.842-0.88-1.348c-0.255-0.695-0.392-1.427-0.404-2.167-0.056-1.234-0.069-1.582-0.069-4.745 0-3.165 0-3.488 0.069-4.746 0.008-0.748 0.145-1.489 0.404-2.191 0.396-1.025 1.208-1.831 2.232-2.223 0.694-0.257 1.427-0.394 2.167-0.404 1.235-0.056 1.582-0.071 4.746-0.071s3.489 0 4.745 0.071c0.741 0.009 1.474 0.146 2.169 0.404 0.505 0.195 0.964 0.494 1.346 0.877s0.681 0.842 0.877 1.347c0.255 0.695 0.392 1.427 0.404 2.167 0.056 1.235 0.070 1.582 0.070 4.746 0 3.163 0 3.503-0.056 4.745h-0.014v-0.001z"></path>
</symbol>
</defs>
</svg>
